<mxfile host="drawio-plugin" modified="2022-05-27T15:21:19.661Z" agent="5.0 (Macintosh; Intel Mac OS X 11_6_5) AppleWebKit/537.36 (KHTML, like Gecko) Chrome/89.0.4389.114 Safari/537.36" etag="gn3jlb4CJKOGTx3_kexr" version="15.5.4" type="embed"><diagram id="Ld8KwZxTX4ORptZv5QiB" name="Page-1"><mxGraphModel dx="882" dy="707" grid="1" gridSize="10" guides="1" tooltips="1" connect="1" arrows="1" fold="1" page="1" pageScale="1" pageWidth="850" pageHeight="1100" math="0" shadow="0"><root><mxCell id="0"/><mxCell id="1" parent="0"/><mxCell id="-O27uHnSzxEbjtYaLbHE-1" value="" style="group;rounded=0;labelBackgroundColor=none;fillColor=none;fontColor=#ffffff;align=center;html=1;" parent="1" vertex="1" connectable="0"><mxGeometry x="450" y="150" width="160" height="180" as="geometry"/><C4Person as="c4"/></mxCell><object label="&lt;b&gt;Non-Profit&lt;/b&gt;&lt;div&gt;[Organization]&lt;/div&gt;&lt;div&gt;&lt;br&gt;&lt;/div&gt;&lt;div&gt;The organization that offers support services to candidates&lt;/div&gt;" placeholders="1" c4Name="name" c4Type="body" c4Description="Description" id="-O27uHnSzxEbjtYaLbHE-2"><mxCell style="rounded=1;whiteSpace=wrap;html=1;labelBackgroundColor=none;fillColor=#08427b;fontColor=#ffffff;align=center;arcSize=33;strokeColor=3c7fc0;" parent="-O27uHnSzxEbjtYaLbHE-1" vertex="1"><mxGeometry y="70" width="160" height="110" as="geometry"/><C4Person as="c4"/></mxCell></object><mxCell id="-O27uHnSzxEbjtYaLbHE-3" value="" style="ellipse;whiteSpace=wrap;html=1;aspect=fixed;rounded=0;labelBackgroundColor=none;fillColor=#08427b;fontSize=12;fontColor=#ffffff;align=center;strokeColor=3c7fc0;" parent="-O27uHnSzxEbjtYaLbHE-1" vertex="1"><mxGeometry x="40" width="80" height="80" as="geometry"/><C4Person as="c4"/></mxCell><mxCell id="-O27uHnSzxEbjtYaLbHE-4" value="" style="group;rounded=0;labelBackgroundColor=none;fillColor=none;fontColor=#ffffff;align=center;html=1;" parent="1" vertex="1" connectable="0"><mxGeometry x="540" y="440" width="160" height="180" as="geometry"/><C4Person as="c4"/></mxCell><object label="&lt;b&gt;Candidate&lt;/b&gt;&lt;div&gt;[Person]&lt;/div&gt;&lt;div&gt;&lt;br&gt;&lt;/div&gt;&lt;div&gt;Takes advantages of Non-Profit services&lt;/div&gt;" placeholders="1" c4Name="name" c4Type="body" c4Description="Description" id="-O27uHnSzxEbjtYaLbHE-5"><mxCell style="rounded=1;whiteSpace=wrap;html=1;labelBackgroundColor=none;fillColor=#08427b;fontColor=#ffffff;align=center;arcSize=33;strokeColor=3c7fc0;" parent="-O27uHnSzxEbjtYaLbHE-4" vertex="1"><mxGeometry y="70" width="160" height="110" as="geometry"/><C4Person as="c4"/></mxCell></object><mxCell id="-O27uHnSzxEbjtYaLbHE-6" value="" style="ellipse;whiteSpace=wrap;html=1;aspect=fixed;rounded=0;labelBackgroundColor=none;fillColor=#08427b;fontSize=12;fontColor=#ffffff;align=center;strokeColor=3c7fc0;" parent="-O27uHnSzxEbjtYaLbHE-4" vertex="1"><mxGeometry x="40" width="80" height="80" as="geometry"/><C4Person as="c4"/></mxCell><mxCell id="-O27uHnSzxEbjtYaLbHE-7" value="" style="group;rounded=0;labelBackgroundColor=none;fillColor=none;fontColor=#ffffff;align=center;html=1;" parent="1" vertex="1" connectable="0"><mxGeometry x="925" y="570" width="160" height="180" as="geometry"/><C4Person as="c4"/></mxCell><object label="&lt;b&gt;Administrator&lt;/b&gt;&lt;div&gt;[Person]&lt;/div&gt;&lt;div&gt;&lt;br&gt;&lt;/div&gt;&lt;div&gt;Manages the platform&lt;/div&gt;" placeholders="1" c4Name="name" c4Type="body" c4Description="Description" id="-O27uHnSzxEbjtYaLbHE-8"><mxCell style="rounded=1;whiteSpace=wrap;html=1;labelBackgroundColor=none;fillColor=#08427b;fontColor=#ffffff;align=center;arcSize=33;strokeColor=3c7fc0;" parent="-O27uHnSzxEbjtYaLbHE-7" vertex="1"><mxGeometry y="70" width="160" height="110" as="geometry"/><C4Person as="c4"/></mxCell></object><mxCell id="-O27uHnSzxEbjtYaLbHE-9" value="" style="ellipse;whiteSpace=wrap;html=1;aspect=fixed;rounded=0;labelBackgroundColor=none;fillColor=#08427b;fontSize=12;fontColor=#ffffff;align=center;strokeColor=3c7fc0;" parent="-O27uHnSzxEbjtYaLbHE-7" vertex="1"><mxGeometry x="40" width="80" height="80" as="geometry"/><C4Person as="c4"/></mxCell><mxCell id="gxZ3DWcQ_LUuyQbRPT7m-19" style="edgeStyle=orthogonalEdgeStyle;rounded=0;orthogonalLoop=1;jettySize=auto;html=1;exitX=0;exitY=0.75;exitDx=0;exitDy=0;" parent="1" source="-O27uHnSzxEbjtYaLbHE-10" target="gxZ3DWcQ_LUuyQbRPT7m-18" edge="1"><mxGeometry relative="1" as="geometry"><Array as="points"><mxPoint x="890" y="350"/><mxPoint x="245" y="350"/></Array></mxGeometry></mxCell><mxCell id="gxZ3DWcQ_LUuyQbRPT7m-20" value="User registration" style="edgeLabel;html=1;align=center;verticalAlign=middle;resizable=0;points=[];fontStyle=1" parent="gxZ3DWcQ_LUuyQbRPT7m-19" vertex="1" connectable="0"><mxGeometry x="-0.008" relative="1" as="geometry"><mxPoint as="offset"/></mxGeometry></mxCell><mxCell id="iu0fllcvZ-EYdWnn5dyQ-3" value="&lt;b&gt;Stores content information&lt;/b&gt;" style="edgeStyle=orthogonalEdgeStyle;rounded=0;orthogonalLoop=1;jettySize=auto;html=1;exitX=1;exitY=0.5;exitDx=0;exitDy=0;" parent="1" source="-O27uHnSzxEbjtYaLbHE-10" target="iu0fllcvZ-EYdWnn5dyQ-1" edge="1"><mxGeometry y="15" relative="1" as="geometry"><mxPoint as="offset"/></mxGeometry></mxCell><object label="&lt;b&gt;Spotlight App&lt;/b&gt;&lt;div&gt;[Software System]&lt;/div&gt;&lt;div&gt;&lt;br&gt;&lt;/div&gt;&lt;div&gt;&lt;div&gt;A technology solution that serves the purpose of enhancing visibility,&lt;/div&gt;&lt;div&gt;support, and collaboration of nonprofits serving similar needs in the community and operate as&lt;/div&gt;&lt;div&gt;a candidate case management platform&lt;/div&gt;&lt;/div&gt;" placeholders="1" c4Name="name" c4Type="SoftwareSystem" c4Description="Description" id="-O27uHnSzxEbjtYaLbHE-10"><mxCell style="rounded=1;whiteSpace=wrap;html=1;labelBackgroundColor=none;fillColor=#1168bd;fontColor=#ffffff;align=center;arcSize=7;strokeColor=#0f5eaa;" parent="1" vertex="1"><mxGeometry x="890" y="160" width="230" height="230" as="geometry"/><C4SoftwareSystem as="c4"/></mxCell></object><mxCell id="-O27uHnSzxEbjtYaLbHE-11" style="edgeStyle=orthogonalEdgeStyle;rounded=0;orthogonalLoop=1;jettySize=auto;html=1;" parent="1" source="-O27uHnSzxEbjtYaLbHE-2" target="-O27uHnSzxEbjtYaLbHE-10" edge="1"><mxGeometry relative="1" as="geometry"/></mxCell><mxCell id="-O27uHnSzxEbjtYaLbHE-12" value="&lt;ul&gt;&lt;li&gt;Registers to&lt;/li&gt;&lt;li&gt;Insert Services&lt;/li&gt;&lt;li&gt;Completes service assessment&lt;/li&gt;&lt;li&gt;Publicize Services&lt;/li&gt;&lt;/ul&gt;" style="edgeLabel;html=1;align=left;verticalAlign=middle;resizable=0;points=[];labelBackgroundColor=none;fontStyle=1" parent="-O27uHnSzxEbjtYaLbHE-11" vertex="1" connectable="0"><mxGeometry x="-0.2226" relative="1" as="geometry"><mxPoint x="-96" as="offset"/></mxGeometry></mxCell><mxCell id="-O27uHnSzxEbjtYaLbHE-18" style="edgeStyle=orthogonalEdgeStyle;rounded=0;orthogonalLoop=1;jettySize=auto;html=1;entryX=0.5;entryY=1;entryDx=0;entryDy=0;fontColor=#000000;" parent="1" source="-O27uHnSzxEbjtYaLbHE-9" target="-O27uHnSzxEbjtYaLbHE-10" edge="1"><mxGeometry relative="1" as="geometry"/></mxCell><mxCell id="gxZ3DWcQ_LUuyQbRPT7m-1" value="&lt;ul&gt;&lt;li&gt;&lt;span&gt;Registers Non-Profits&lt;/span&gt;&lt;br&gt;&lt;/li&gt;&lt;li&gt;Assesses Non-Profits&lt;/li&gt;&lt;/ul&gt;" style="edgeLabel;html=1;align=left;verticalAlign=middle;resizable=0;points=[];labelBackgroundColor=none;fontStyle=1" parent="1" vertex="1" connectable="0"><mxGeometry x="910" y="460" as="geometry"/></mxCell><object label="&lt;b&gt;Analytics Platform&lt;/b&gt;&lt;div&gt;[Software System]&lt;/div&gt;&lt;div&gt;&lt;br&gt;&lt;/div&gt;&lt;div&gt;&lt;div&gt;Platform used to store relevant data for analytics purposes and generate operational and analytical reports&lt;/div&gt;&lt;/div&gt;" placeholders="1" c4Name="name" c4Type="SoftwareSystem" c4Description="Description" id="gxZ3DWcQ_LUuyQbRPT7m-2"><mxCell style="rounded=1;whiteSpace=wrap;html=1;labelBackgroundColor=none;fillColor=#999999;fontColor=#ffffff;align=center;arcSize=7;strokeColor=#0f5eaa;" parent="1" vertex="1"><mxGeometry x="1360" y="580" width="230" height="230" as="geometry"/><C4SoftwareSystem as="c4"/></mxCell></object><mxCell id="gxZ3DWcQ_LUuyQbRPT7m-6" value="" style="endArrow=classic;html=1;rounded=0;exitX=1;exitY=1;exitDx=0;exitDy=0;entryX=0.009;entryY=0.05;entryDx=0;entryDy=0;entryPerimeter=0;" parent="1" source="-O27uHnSzxEbjtYaLbHE-10" target="gxZ3DWcQ_LUuyQbRPT7m-2" edge="1"><mxGeometry width="50" height="50" relative="1" as="geometry"><mxPoint x="1180" y="430" as="sourcePoint"/><mxPoint x="1230" y="380" as="targetPoint"/></mxGeometry></mxCell><mxCell id="gxZ3DWcQ_LUuyQbRPT7m-7" value="Sends Analytics relevant data" style="edgeLabel;html=1;align=center;verticalAlign=middle;resizable=0;points=[];fontStyle=1" parent="gxZ3DWcQ_LUuyQbRPT7m-6" vertex="1" connectable="0"><mxGeometry x="-0.1977" relative="1" as="geometry"><mxPoint as="offset"/></mxGeometry></mxCell><mxCell id="gxZ3DWcQ_LUuyQbRPT7m-8" style="edgeStyle=orthogonalEdgeStyle;rounded=0;orthogonalLoop=1;jettySize=auto;html=1;" parent="1" source="-O27uHnSzxEbjtYaLbHE-8" target="gxZ3DWcQ_LUuyQbRPT7m-2" edge="1"><mxGeometry relative="1" as="geometry"/></mxCell><mxCell id="gxZ3DWcQ_LUuyQbRPT7m-9" value="&lt;div&gt;&lt;br&gt;&lt;/div&gt;&lt;ul&gt;&lt;li&gt;Creates and Reads operational reports&lt;/li&gt;&lt;li&gt;Creates and Reads analytical reports&lt;/li&gt;&lt;/ul&gt;" style="edgeLabel;html=1;align=left;verticalAlign=middle;resizable=0;points=[];labelBackgroundColor=none;fontStyle=1" parent="1" vertex="1" connectable="0"><mxGeometry x="1070" y="690" as="geometry"/></mxCell><mxCell id="gxZ3DWcQ_LUuyQbRPT7m-16" value="" style="endArrow=classic;html=1;rounded=0;entryX=0;entryY=1;entryDx=0;entryDy=0;" parent="1" target="-O27uHnSzxEbjtYaLbHE-10" edge="1"><mxGeometry width="50" height="50" relative="1" as="geometry"><mxPoint x="700" y="565" as="sourcePoint"/><mxPoint x="770" y="400" as="targetPoint"/></mxGeometry></mxCell><mxCell id="gxZ3DWcQ_LUuyQbRPT7m-17" value="&lt;ul&gt;&lt;li&gt;Registers to&lt;/li&gt;&lt;li&gt;Select Services&lt;/li&gt;&lt;/ul&gt;" style="edgeLabel;html=1;align=left;verticalAlign=middle;resizable=0;points=[];labelBackgroundColor=none;fontStyle=1" parent="1" vertex="1" connectable="0"><mxGeometry x="710.004545454545" y="490.00090909090875" as="geometry"/></mxCell><object label="&lt;b&gt;Authentication &amp;amp; Authorization&lt;/b&gt;&lt;div&gt;[Software System]&lt;/div&gt;&lt;div&gt;&lt;br&gt;&lt;/div&gt;&lt;div&gt;Allows the users to register to the platform and to assign roles and privileges&lt;/div&gt;" placeholders="1" c4Name="name" c4Type="SoftwareSystemDependency" c4Description="Description" id="gxZ3DWcQ_LUuyQbRPT7m-18"><mxCell style="rounded=1;whiteSpace=wrap;html=1;labelBackgroundColor=none;fillColor=#999999;fontColor=#ffffff;align=center;arcSize=7;strokeColor=#8a8a8a;" parent="1" vertex="1"><mxGeometry x="140" y="530" width="210" height="190" as="geometry"/><C4SoftwareSystemDependency as="c4"/></mxCell></object><object label="&lt;b&gt;CMS Platform&lt;/b&gt;&lt;div&gt;[Software System]&lt;/div&gt;&lt;div&gt;&lt;br&gt;&lt;/div&gt;&lt;div&gt;&lt;div&gt;Content Management Platform is used to store non-profit offerings, candidate profile information, etc.&lt;/div&gt;&lt;/div&gt;" placeholders="1" c4Name="name" c4Type="SoftwareSystem" c4Description="Description" id="iu0fllcvZ-EYdWnn5dyQ-1"><mxCell style="rounded=1;whiteSpace=wrap;html=1;labelBackgroundColor=none;fillColor=#999999;fontColor=#ffffff;align=center;arcSize=7;strokeColor=#0f5eaa;" parent="1" vertex="1"><mxGeometry x="1360" y="160" width="230" height="230" as="geometry"/><C4SoftwareSystem as="c4"/></mxCell></object></root></mxGraphModel></diagram></mxfile>